<?xml version="1.0" standalone="no"?>
<!DOCTYPE svg PUBLIC "-//W3C//DTD SVG 20010904//EN"
 "http://www.w3.org/TR/2001/REC-SVG-20010904/DTD/svg10.dtd">
<svg version="1.0" xmlns="http://www.w3.org/2000/svg"
 width="900.000000pt" height="900.000000pt" viewBox="0 0 900.000000 900.000000"
 preserveAspectRatio="xMidYMid meet">
<metadata>
Created by potrace 1.11, written by Peter Selinger 2001-2013
</metadata>
<g transform="translate(0.000000,900.000000) scale(0.100000,-0.100000)"
fill="#000000" stroke="none">
<path d="M4258 8996 c-1 -2 -46 -6 -98 -10 -95 -6 -124 -9 -255 -26 -38 -5
-90 -12 -115 -15 -25 -4 -61 -10 -80 -15 -19 -5 -51 -11 -70 -13 -41 -6 -183
-38 -295 -67 -661 -172 -1310 -522 -1830 -984 -117 -104 -304 -292 -380 -381
-33 -38 -67 -77 -75 -85 -47 -46 -272 -350 -346 -468 -62 -99 -114 -185 -125
-207 -5 -11 -18 -35 -29 -53 -25 -41 -130 -250 -160 -317 -12 -27 -32 -72 -45
-100 -89 -198 -241 -689 -261 -844 -3 -19 -6 -37 -8 -40 -3 -3 -12 -51 -21
-106 -22 -135 -23 -142 -30 -208 -4 -32 -8 -68 -11 -80 -25 -132 -25 -731 1
-954 4 -39 18 -147 20 -153 0 -3 5 -32 9 -65 4 -32 10 -68 12 -80 2 -11 9 -47
15 -80 21 -119 116 -484 140 -540 4 -11 18 -51 30 -90 12 -38 25 -74 29 -80 3
-5 17 -39 30 -75 31 -89 47 -125 160 -355 223 -453 496 -832 865 -1200 77 -77
152 -149 167 -161 15 -12 53 -44 85 -72 107 -95 379 -298 444 -332 13 -7 26
-16 29 -20 4 -6 90 -58 220 -134 74 -44 392 -201 483 -239 46 -19 138 -54 203
-77 65 -23 126 -44 134 -48 8 -3 17 -6 20 -7 3 0 37 -10 75 -22 70 -22 212
-60 250 -68 11 -3 61 -13 110 -24 50 -11 108 -23 130 -27 22 -4 47 -9 55 -10
8 -2 49 -8 91 -14 41 -6 84 -12 95 -14 10 -2 55 -7 99 -11 44 -4 116 -11 160
-15 83 -7 635 -5 670 3 11 3 61 8 110 12 50 4 92 8 95 10 3 1 36 6 75 10 38 4
72 8 75 10 3 2 26 6 50 10 115 17 312 63 550 128 85 24 342 119 465 172 189
82 469 228 588 307 32 21 60 38 61 38 3 0 101 66 192 129 50 35 253 192 276
214 7 7 49 43 93 82 101 88 300 287 385 385 36 41 68 77 71 80 13 12 161 203
221 285 119 165 249 380 345 570 56 111 143 294 143 302 0 3 7 19 15 36 62
135 201 578 229 732 3 17 11 59 19 95 8 36 18 88 22 115 5 28 10 57 11 65 8
38 34 264 41 350 15 181 7 747 -12 820 -2 8 -6 45 -10 82 -3 37 -8 77 -10 90
-2 13 -6 39 -9 58 -10 61 -24 142 -31 175 -2 6 -8 37 -14 70 -7 33 -16 74 -21
90 -5 17 -11 41 -14 55 -32 164 -158 526 -268 770 -79 173 -227 447 -294 543
-19 26 -34 49 -34 52 0 2 -32 51 -72 107 -477 685 -1123 1219 -1883 1554 -88
39 -176 77 -195 83 -19 7 -44 17 -55 21 -75 32 -430 141 -497 154 -13 2 -68
14 -123 26 -108 23 -228 44 -315 55 -30 4 -62 9 -71 10 -9 2 -52 6 -95 10 -43
4 -90 9 -104 12 -30 5 -596 13 -602 9z"/>
</g>
</svg>
